<svg id="Camada_1" data-name="Camada 1" xmlns="http://www.w3.org/2000/svg" xmlns:xlink="http://www.w3.org/1999/xlink" viewBox="0 0 841.89 595.28"><defs><style>.cls-1{fill:url(#Gradiente_sem_nome_21);}.cls-2{fill:#153353;}.cls-3{fill:#15385b;}.cls-4{fill:#045287;}.cls-5{fill:#045a7e;}.cls-6{fill:#116281;}.cls-7{fill:#135d7b;}.cls-8{fill:#0c597a;}.cls-9{fill:#186f97;}.cls-10{fill:#0d5d7e;}.cls-11{fill:#216584;}.cls-12{fill:#21627e;}.cls-13{fill:#025971;}.cls-14{fill:#004c6a;}.cls-15{fill:#075473;}.cls-16{fill:#035474;}.cls-17{fill:#065676;}.cls-18{fill:#095671;}.cls-19{fill:#02516e;}.cls-20{fill:#0b5d7a;}.cls-21{fill:#06597a;}.cls-22{fill:#006390;}.cls-23{fill:#006ea6;}.cls-24{fill:#006c9d;}.cls-25{fill:#064169;}.cls-26{fill:#004c86;}.cls-27{fill:#0c3e64;}.cls-28{fill:#00456f;}.cls-29{fill:#014772;}.cls-30{fill:#004363;}.cls-31{fill:#00446e;}.cls-32{fill:#04415d;}.cls-33{fill:#004a7b;}.cls-34{fill:#0f3a5d;}.cls-35{fill:#004774;}.cls-36{fill:#06416a;}.cls-37{fill:#04466c;}.cls-38{fill:#15375b;}.cls-39{fill:#143a61;}.cls-40{fill:#023f61;}.cls-41{fill:#0e3b5f;}.cls-42{fill:#063d5f;}.cls-43{fill:#005181;}.cls-44{fill:#024e78;}.cls-45{fill:#1a365f;}.cls-46{fill:#143a60;}.cls-47{fill:#163354;}.cls-48{fill:#133351;}.cls-49{fill:#11437b;}.cls-50{fill:#103655;}.cls-51{fill:#0d3f68;}.cls-52{fill:#00476f;}.cls-53{fill:#123453;}.cls-54{fill:#0a406a;}.cls-55{fill:#005283;}.cls-56{fill:#065c8d;}.cls-57{fill:#035c83;}.cls-58{fill:#1a355a;}.cls-59{fill:#063853;}.cls-60{fill:#103757;}.cls-61{fill:#1b3863;}.cls-62{fill:#004975;}.cls-63{fill:#055270;}.cls-64{fill:#035782;}.cls-65{fill:#0e3e64;}.cls-66{fill:#094477;}.cls-67{fill:#0d3b5e;}.cls-68{fill:#073d60;}.cls-69{fill:#005077;}.cls-70{fill:#08506f;}.cls-71{fill:#065879;}.cls-72{fill:#11314c;}.cls-73{fill:#172b48;}.cls-74{fill:#13304c;}.cls-75{fill:#004c75;}.cls-76{fill:#152b45;}.cls-77{fill:#0b2e43;}.cls-78{fill:#0e3450;}.cls-79{fill:#0e2e46;}.cls-80{fill:#033247;}.cls-81{fill:#08324a;}.cls-82{fill:#06435c;}.cls-83{fill:#014c77;}.cls-84{fill:#023f5b;}.cls-85{fill:#004059;}.cls-86{fill:#02405b;}.cls-87{fill:#004c6e;}.cls-88{fill:#034f65;}.cls-89{fill:#124c64;}.cls-90{fill:#043954;}.cls-91{fill:#073854;}.cls-92{fill:#034b66;}.cls-93{fill:#064e63;}.cls-94{fill:#044460;}.cls-95{fill:#206c93;}.cls-96{fill:#337697;}.cls-97{fill:#5f8ba4;}.cls-98{fill:#4685a1;}.cls-99{fill:#87b2c6;}.cls-100{fill:#7eabc0;}.cls-101{fill:#12597a;}.cls-102{fill:#034b6d;}.cls-103{fill:#47839f;}.cls-104{fill:#74a6bb;}.cls-105{fill:#427e97;}.cls-106{fill:#00496c;}.cls-107{fill:#075276;}.cls-108{fill:#004970;}.cls-109{fill:#1b3862;}.cls-110{fill:#0c3d63;}.cls-111{fill:#0b457d;}.cls-112{fill:#183254;}.cls-113{fill:#004e7e;}.cls-114{fill:#004777;}.cls-115{fill:#01547b;}.cls-116{fill:#015783;}.cls-117{fill:#005280;}.cls-118{fill:#004671;}.cls-119{fill:#02517c;}.cls-120{fill:#006da4;}.cls-121{fill:#065b93;}.cls-122{fill:#036193;}.cls-123{fill:#005082;}.cls-124{fill:#015989;}.cls-125{fill:#065e91;}.cls-126{fill:#04527c;}.cls-127{fill:#025e90;}.cls-128{fill:#00527f;}.cls-129{fill:#085176;}.cls-130{fill:#015484;}.cls-131{fill:#004d77;}.cls-132{fill:#153c66;}.cls-133{fill:#004c78;}.cls-134{fill:#03577a;}.cls-135{fill:#073a57;}.cls-136{fill:#1d6487;}.cls-137{fill:#064770;}.cls-138{fill:#064560;}.cls-139{fill:#033c59;}.cls-140{fill:#004770;}.cls-141{fill:#054b7c;}.cls-142{fill:#035b80;}.cls-143{fill:#045a84;}.cls-144{fill:#014e6f;}.cls-145{fill:#02547d;}.cls-146{fill:#014872;}.cls-147{fill:#07698b;}.cls-148{fill:#2a6b91;}.cls-149{fill:#0e6fa0;}.cls-150{fill:#2f7595;}.cls-151{fill:#3d8eb4;}.cls-152{fill:#3986a6;}.cls-153{fill:#0f76a0;}.cls-154{fill:#649fc0;}.cls-155{fill:#036895;}.cls-156{fill:#045a83;}.cls-157{fill:#026592;}.cls-158{fill:#034e76;}.cls-159{fill:#034568;}.cls-160{fill:#00567d;}.cls-161{fill:#095d85;}.cls-162{fill:#037da9;}.cls-163{fill:#0aa6cc;}.cls-164{fill:#00a0ca;}.cls-165{fill:#0e93c0;}.cls-166{fill:#33beed;}.cls-167{fill:#20b7de;}.cls-168{fill:#04afdb;}.cls-169{fill:#039cc8;}.cls-170{fill:#10a7d5;}.cls-171{fill:#347283;}.cls-172{fill:#478199;}.cls-173{fill:#457d93;}.cls-174{fill:#014d5f;}.cls-175{fill:#15546f;}.cls-176{fill:#055366;}.cls-177{fill:#255e75;}.cls-178{fill:#13546f;}.cls-179{fill:#016490;}.cls-180{fill:#0f6e98;}.cls-181{fill:#0b79a5;}.cls-182{fill:#02476b;}.cls-183{fill:#024c6d;}.cls-184{fill:#004a71;}.cls-185{fill:#0d4962;}.cls-186{fill:#065275;}.cls-187{fill:#055675;}.cls-188{fill:#035183;}.cls-189{fill:#055775;}.cls-190{fill:#035b77;}.cls-191{fill:#084b70;}.cls-192{fill:#103e68;}.cls-193{fill:none;}.cls-194{fill:#043f63;}.cls-195{fill:#04426b;}.cls-196{fill:#004368;}.cls-197{fill:#004060;}.cls-198{fill:#03466b;}.cls-199{fill:#153455;}.cls-200{fill:#0b516e;}.cls-201{fill:#075c84;}.cls-202{fill:#005279;}.cls-203{fill:#06567d;}.cls-204{fill:#005178;}.cls-205{fill:#024466;}.cls-206{fill:#0a5a82;}.cls-207{fill:#034e71;}.cls-208{fill:#034468;}.cls-209{fill:#02486d;}.cls-210{fill:#054b6f;}.cls-211{fill:#04628a;}.cls-212{fill:#035887;}.cls-213{fill:#00466f;}.cls-214{fill:#05537a;}.cls-215{fill:#00537f;}.cls-216{fill:#055f89;}.cls-217{fill:#196485;}.cls-218{fill:#0b526f;}.cls-219{fill:#2a6c88;}.cls-220{fill:#316d82;}.cls-221{fill:#256a85;}.cls-222{fill:#2a6b87;}.cls-223{fill:#40798d;}.cls-224{fill:#276782;}.cls-225{fill:#397789;}.cls-226{fill:#417a90;}.cls-227{fill:#09587a;}.cls-228{fill:#3e7291;}.cls-229{fill:#407392;}.cls-230{fill:#357092;}.cls-231{fill:#276787;}.cls-232{fill:#074c6b;}.cls-233{fill:#055d85;}.cls-234{fill:#205f7a;}.cls-235{fill:#285d7a;}.cls-236{fill:#235b78;}.cls-237{fill:#3e7192;}.cls-238{fill:#0a96c0;}.cls-239{fill:#07a6cf;}.cls-240{fill:#0b6087;}.cls-241{fill:#0c6087;}.cls-242{fill:#136991;}.cls-243{fill:#276486;}.cls-244{fill:#48738c;}.cls-245{fill:#3e6c88;}.cls-246{fill:#5a879a;}.cls-247{fill:#598494;}.cls-248{fill:#4f7c8e;}.cls-249{fill:#2e6383;}.cls-250{fill:#0c6286;}.cls-251{fill:#0b5975;}.cls-252{fill:#275d7b;}.cls-253{fill:#4e788f;}.cls-254{fill:#095778;}.cls-255{fill:#2e617e;}.cls-256{fill:#21607f;}.cls-257{fill:#0c5674;}.cls-258{fill:#316584;}.cls-259{fill:#3d6d8b;}.cls-260{fill:#0f6082;}.cls-261{fill:#105b7b;}.cls-262{fill:#377288;}.cls-263{fill:#548ea0;}.cls-264{fill:#3b758a;}.cls-265{fill:#6a9db4;}.cls-266{fill:#7dabba;}.cls-267{fill:#79a7bb;}.cls-268{fill:#78a8b9;}.cls-269{fill:#78a2ba;}.cls-270{fill:#90b6cb;}.cls-271{fill:#35657c;}.cls-272{fill:#134e6b;}.cls-273{fill:#84aabd;}.cls-274{fill:#8eb2c5;}.cls-275{fill:#2c6b8c;}.cls-276{fill:#206387;}.cls-277{fill:#316d91;}.cls-278{fill:#0f628a;}.cls-279{fill:#086794;}.cls-280{fill:#237ea7;}.cls-281{fill:#4e90b2;}.cls-282{fill:#397f9c;}.cls-283{fill:#7da9bc;}.cls-284{fill:#5793a8;}.cls-285{fill:#4889a5;}.cls-286{fill:#528da5;}.cls-287{fill:#5794b3;}.cls-288{fill:#8fb4c5;}.cls-289{fill:#7eadbf;}.cls-290{fill:#6a9db2;}.cls-291{fill:#73a7bc;}.cls-292{fill:#86afc5;}.cls-293{fill:#9bbdd0;}.cls-294{fill:#8fb5cc;}.cls-295{fill:#97bbcd;}.cls-296{fill:#72a6bc;}.cls-297{fill:#6aa2c1;}.cls-298{fill:#7eaac1;}.cls-299{fill:#30637e;}.cls-300{fill:#91b7c6;}.cls-301{fill:#1d1d1b;}</style><linearGradient id="Gradiente_sem_nome_21" x1="420.94" y1="595.28" x2="420.94" gradientUnits="userSpaceOnUse"><stop offset="0" stop-color="#006691"/><stop offset="0.96" stop-color="#2ea7df"/><stop offset="1" stop-color="#36a9e1"/></linearGradient></defs><title>trabalho de desing</title><rect class="cls-1" width="841.89" height="595.28"/><polygon class="cls-2" points="505.32 387.72 556.44 444.96 568.32 431.64 505.32 387.72"/><polygon class="cls-3" points="565.8 448.2 568.32 431.64 556.44 444.96 565.8 448.2"/><polygon class="cls-4" points="571.2 439.92 568.32 431.64 565.8 448.2 571.2 439.92"/><polygon class="cls-5" points="571.2 401.4 544.15 414.79 568.32 431.64 571.2 439.92 571.2 401.4"/><polygon class="cls-6" points="548.88 389.16 571.2 401.4 544.15 414.79 548.88 389.16"/><polygon class="cls-7" points="479.76 369 505.32 387.72 532.27 406.51 548.88 389.16 479.76 369"/><polygon class="cls-8" points="544.15 414.79 532.27 406.51 548.88 389.16 544.15 414.79"/><polygon class="cls-9" points="571.2 401.4 564.36 372.6 548.88 389.16 571.2 401.4"/><polygon class="cls-10" points="536.82 375.12 564.36 372.6 560.04 356.76 536.82 375.12"/><polygon class="cls-11" points="536.82 375.12 548.88 389.16 564.36 372.6 536.82 375.12"/><polygon class="cls-12" points="479.76 369 536.82 375.12 548.88 389.16 479.76 369"/><polygon class="cls-13" points="560.04 356.76 557.67 346.68 532.27 351.72 536.82 375.12 560.04 356.76"/><polygon class="cls-14" points="509.29 372.17 517.56 353.16 532.27 351.72 536.82 375.12 509.29 372.17"/><polygon class="cls-15" points="479.76 369 517.56 353.16 509.29 372.17 479.76 369"/><polygon class="cls-16" points="557.67 346.68 622.32 331.32 586.32 320.28 557.67 346.68"/><polygon class="cls-17" points="479.76 369 400.08 375.12 414.48 351.72 479.76 369"/><polygon class="cls-18" points="414.48 351.72 496.08 343.32 479.76 369 414.48 351.72"/><polygon class="cls-19" points="557.67 346.68 496.08 343.32 517.56 353.16 532.27 351.72 557.67 346.68"/><polygon class="cls-20" points="479.76 369 517.56 353.16 496.08 343.32 479.76 369"/><polygon class="cls-21" points="586.32 320.28 496.08 343.32 557.67 346.68 586.32 320.28"/><polygon class="cls-22" points="622.32 331.32 648.24 317.88 586.32 320.28 622.32 331.32"/><polygon class="cls-23" points="670.32 299.64 648.24 317.88 668.4 292.92 670.32 299.64"/><polygon class="cls-24" points="632.39 318.49 668.4 292.92 648.24 317.88 632.39 318.49"/><polygon class="cls-25" points="35.04 275.52 52.8 302.4 63.6 285.12 35.04 275.52"/><polygon class="cls-26" points="49.32 275.52 63.6 285.12 35.04 275.52 49.32 275.52"/><polygon class="cls-27" points="64.32 313.92 52.8 302.4 73.8 304.08 64.32 313.92"/><polygon class="cls-28" points="63.6 285.12 73.8 304.08 52.8 302.4 63.6 285.12"/><polygon class="cls-29" points="81 292.8 73.8 304.08 63.6 285.12 81 292.8"/><polygon class="cls-30" points="75.36 324.72 73.8 304.08 64.32 313.92 75.36 324.72"/><polygon class="cls-31" points="81 292.8 75.36 324.72 73.8 304.08 81 292.8"/><polygon class="cls-32" points="87.36 339.12 81 292.8 75.36 324.72 87.36 339.12"/><polygon class="cls-33" points="97.2 300.96 81 292.8 84.04 314.91 97.2 300.96"/><polygon class="cls-34" points="87.36 339.12 105.48 323.64 84.04 314.91 87.36 339.12"/><polygon class="cls-35" points="97.2 300.96 116.4 308.76 84.04 314.91 97.2 300.96"/><polygon class="cls-36" points="105.48 323.64 116.4 308.76 84.04 314.91 105.48 323.64"/><polygon class="cls-37" points="87.36 339.12 103.08 357.84 98.76 339.12 87.36 339.12"/><polygon class="cls-38" points="114.24 371.28 98.76 339.12 103.08 357.84 114.24 371.28"/><polygon class="cls-39" points="105.48 323.64 98.76 339.12 87.36 339.12 105.48 323.64"/><polygon class="cls-40" points="116.4 308.76 131.4 336.48 105.48 323.64 116.4 308.76"/><polygon class="cls-41" points="98.76 339.12 131.4 336.48 105.48 323.64 98.76 339.12"/><polygon class="cls-42" points="116.4 308.76 139.8 320.04 131.4 336.48 116.4 308.76"/><polygon class="cls-43" points="162 338.4 139.8 320.04 131.4 336.48 162 338.4"/><polygon class="cls-41" points="98.76 339.12 143.4 358.68 131.4 336.48 98.76 339.12"/><polygon class="cls-44" points="162 338.4 143.4 358.68 131.4 336.48 162 338.4"/><polygon class="cls-45" points="114.24 371.28 123.96 381.36 98.76 339.12 114.24 371.28"/><polygon class="cls-46" points="143.4 358.68 125.88 361.44 98.76 339.12 143.4 358.68"/><polygon class="cls-47" points="123.96 381.36 125.88 361.44 98.76 339.12 123.96 381.36"/><polygon class="cls-41" points="143.4 358.68 131.4 336.48 98.76 339.12 143.4 358.68"/><polygon class="cls-48" points="96.24 459 103.32 430.44 103.8 452.16 96.24 459"/><polygon class="cls-41" points="103.08 459 103.8 452.16 96.24 459 103.08 459"/><polygon class="cls-49" points="121.2 441.84 103.08 459 103.8 452.16 121.2 441.84"/><polygon class="cls-50" points="103.32 430.44 115.8 431.04 103.8 452.16 103.32 430.44"/><polygon class="cls-51" points="121.2 441.84 115.8 431.04 103.8 452.16 121.2 441.84"/><polygon class="cls-47" points="113.4 407.88 115.8 431.04 103.32 430.44 113.4 407.88"/><polygon class="cls-52" points="121.2 441.84 135.36 425.64 115.8 431.04 121.2 441.84"/><polygon class="cls-53" points="113.4 407.88 122.4 419.46 115.8 431.04 113.4 407.88"/><polygon class="cls-54" points="135.36 425.64 122.4 419.46 115.8 431.04 135.36 425.64"/><polygon class="cls-55" points="135.96 409.32 135.36 425.64 122.4 419.46 135.96 409.32"/><polygon class="cls-56" points="150.96 400.8 135.36 425.64 135.96 409.32 150.96 400.8"/><polygon class="cls-57" points="152.4 376.56 150.96 400.8 135.96 409.32 152.4 376.56"/><polygon class="cls-58" points="113.4 407.88 130.8 395.04 123.96 381.36 113.4 407.88"/><polygon class="cls-59" points="114.24 371.28 117.9 386.28 113.4 407.88 123.96 381.36 114.24 371.28"/><polygon class="cls-60" points="122.4 419.46 130.8 395.04 113.4 407.88 122.4 419.46"/><polygon class="cls-61" points="162 383.04 175.2 370.68 166.32 365.88 162 383.04"/><polygon class="cls-62" points="162 338.4 166.32 365.88 143.4 358.68 162 338.4"/><polygon class="cls-63" points="162 383.04 152.4 376.56 166.32 365.88 162 383.04"/><polygon class="cls-64" points="150.96 400.8 162 383.04 152.4 376.56 150.96 400.8"/><polygon class="cls-65" points="122.4 419.46 135.96 409.32 130.8 395.04 122.4 419.46"/><polygon class="cls-66" points="152.4 376.56 130.8 395.04 135.96 409.32 152.4 376.56"/><polygon class="cls-67" points="123.96 381.36 152.4 376.56 130.8 395.04 123.96 381.36"/><polygon class="cls-68" points="125.88 361.44 152.4 376.56 123.96 381.36 125.88 361.44"/><polygon class="cls-69" points="143.4 358.68 152.4 376.56 125.88 361.44 143.4 358.68"/><polygon class="cls-70" points="166.32 365.88 152.4 376.56 143.4 358.68 166.32 365.88"/><polygon class="cls-71" points="175.2 370.68 162 338.4 166.32 365.88 175.2 370.68"/><polygon class="cls-72" points="175.2 278.04 226.8 278.04 224.4 288.6 175.2 278.04"/><polygon class="cls-73" points="233.76 296.28 224.4 288.6 232.08 286.32 233.76 296.28"/><polygon class="cls-74" points="226.8 278.04 232.08 286.32 224.4 288.6 226.8 278.04"/><polygon class="cls-75" points="248.4 279.24 226.8 278.04 232.08 286.32 248.4 279.24"/><polygon class="cls-76" points="247.08 299.16 232.08 286.32 233.76 296.28 247.08 299.16"/><polygon class="cls-77" points="256.8 294.12 247.08 299.16 232.08 286.32 256.8 294.12"/><polygon class="cls-78" points="288.6 296.88 294.48 306.48 270.96 302.76 288.6 296.88"/><polygon class="cls-79" points="247.08 299.16 270.96 302.76 256.8 294.12 247.08 299.16"/><polygon class="cls-80" points="288.6 296.88 256.8 294.12 270.96 302.76 288.6 296.88"/><polygon class="cls-81" points="258 286.32 256.8 294.12 232.08 286.32 258 286.32"/><polygon class="cls-82" points="248.4 279.24 258 286.32 232.08 286.32 248.4 279.24"/><polygon class="cls-83" points="273.48 280.08 248.4 279.24 258 286.32 273.48 280.08"/><polygon class="cls-84" points="256.8 294.12 288.6 296.88 258 286.32 256.8 294.12"/><polygon class="cls-85" points="288.6 296.88 273.48 280.08 258 286.32 288.6 296.88"/><polygon class="cls-86" points="294.48 306.48 324.6 309.36 288.6 296.88 294.48 306.48"/><polygon class="cls-87" points="273.48 280.08 301.56 280.08 288.6 296.88 273.48 280.08"/><polygon class="cls-88" points="315.84 294.12 301.56 280.08 288.6 296.88 315.84 294.12"/><polygon class="cls-89" points="331.8 280.08 315.84 294.12 301.56 280.08 331.8 280.08"/><polygon class="cls-90" points="288.6 296.88 315.84 294.12 324.6 309.36 288.6 296.88"/><polygon class="cls-91" points="351.96 316.92 324.6 309.36 315.84 294.12 351.96 316.92"/><polygon class="cls-92" points="336.96 296.04 315.84 294.12 331.8 280.08 336.96 296.04"/><polygon class="cls-93" points="351.96 316.92 336.96 296.04 315.84 294.12 351.96 316.92"/><polygon class="cls-94" points="331.8 280.08 353.16 280.08 336.96 296.04 331.8 280.08"/><polygon class="cls-95" points="668.4 292.92 660.66 279.36 632.39 318.49 668.4 292.92"/><polygon class="cls-96" points="586.32 320.28 618.36 290.7 632.39 318.49 586.32 320.28"/><polygon class="cls-97" points="638.88 267.12 604.5 263.34 618.36 290.7 638.88 267.12"/><polygon class="cls-98" points="582.54 292.92 586.32 320.28 618.36 290.7 582.54 292.92"/><polygon class="cls-99" points="604.5 263.34 582.54 292.92 618.36 290.7 604.5 263.34"/><polygon class="cls-100" points="573.18 261.18 604.5 263.34 582.54 292.92 573.18 261.18"/><polygon class="cls-101" points="660.66 279.36 648.24 279.36 638.88 267.12 660.66 279.36"/><polygon class="cls-102" points="677.76 296.28 660.66 279.36 668.4 292.92 670.32 299.64 677.76 296.28"/><polygon class="cls-103" points="632.39 318.49 648.24 279.36 638.88 267.12 632.39 318.49"/><polygon class="cls-104" points="660.66 279.36 648.24 279.36 632.39 318.49 660.66 279.36"/><polygon class="cls-105" points="632.39 318.49 638.88 267.12 618.36 290.7 632.39 318.49"/><polygon class="cls-106" points="175.2 370.68 189.06 369.54 194.64 358.68 175.2 370.68"/><polygon class="cls-107" points="162 338.4 194.64 358.68 175.2 370.68 162 338.4"/><polygon class="cls-108" points="189.06 369.54 198.6 378 194.64 358.68 189.06 369.54"/><polygon class="cls-109" points="191.04 389.58 193.83 398.7 187.08 398.7 191.04 389.58"/><polygon class="cls-110" points="198.6 378 191.04 389.58 200.76 385.8 198.6 378"/><polygon class="cls-111" points="193.83 398.7 203.28 391.5 200.76 385.8 193.83 398.7"/><polygon class="cls-112" points="191.04 389.58 193.83 398.7 200.76 385.8 191.04 389.58"/><polygon class="cls-113" points="203.28 391.5 214.62 378 200.76 385.8 203.28 391.5"/><polygon class="cls-114" points="198.6 378 214.62 378 200.76 385.8 198.6 378"/><polygon class="cls-115" points="225.42 368.34 214.62 378 217.86 361.44 225.42 368.34"/><polygon class="cls-116" points="198.6 378 217.86 361.44 214.62 378 198.6 378"/><polygon class="cls-117" points="194.64 358.68 217.86 361.44 198.6 378 194.64 358.68"/><polygon class="cls-118" points="162 338.4 187.08 322.02 197.7 337.32 162 338.4"/><polygon class="cls-119" points="194.64 358.68 197.7 337.32 162 338.4 194.64 358.68"/><polygon class="cls-120" points="384.36 93.24 409.74 125.46 397.05 99.36 384.36 93.24"/><polygon class="cls-121" points="376.26 125.46 392.82 115.74 384.36 93.24 376.26 125.46"/><polygon class="cls-122" points="409.74 125.46 392.82 115.74 384.36 93.24 409.74 125.46"/><polygon class="cls-123" points="376.26 125.46 372.66 171 400.74 138.06 376.26 125.46"/><polygon class="cls-124" points="392.82 115.74 400.74 138.06 376.26 125.46 392.82 115.74"/><polygon class="cls-125" points="409.74 125.46 421.8 155.88 400.74 138.06 392.82 115.74 409.74 125.46"/><polygon class="cls-126" points="372.66 171 361.32 204.84 407.31 183.6 372.66 171"/><polygon class="cls-127" points="430.08 173.16 421.8 155.88 400.74 138.06 430.08 173.16"/><polygon class="cls-128" points="372.66 171 405.6 160.56 400.74 138.06 372.66 171"/><polygon class="cls-129" points="430.08 173.16 407.31 183.6 405.6 160.56 430.08 173.16"/><polygon class="cls-130" points="400.74 138.06 405.6 160.56 430.08 173.16 400.74 138.06"/><polygon class="cls-131" points="405.6 160.56 407.31 183.6 372.66 171 405.6 160.56"/><polygon class="cls-132" points="187.08 322.02 206.25 304.2 225.42 296.04 187.08 322.02"/><polygon class="cls-133" points="197.7 337.32 226.8 323.28 187.08 322.02 197.7 337.32"/><polygon class="cls-134" points="217.86 361.44 197.7 337.32 194.64 358.68 217.86 361.44"/><polygon class="cls-135" points="206.25 304.2 215.88 287.1 225.42 296.04 206.25 304.2"/><polygon class="cls-136" points="233.76 296.28 225.42 296.04 224.4 288.6 233.76 296.28"/><polygon class="cls-137" points="215.88 287.1 224.4 288.6 225.42 296.04 215.88 287.1"/><polygon class="cls-138" points="225.42 368.34 249.54 356.76 217.86 361.44 225.42 368.34"/><polygon class="cls-139" points="268.98 341.82 276.36 351 249.54 356.76 268.98 341.82"/><polygon class="cls-140" points="225.42 296.04 226.8 323.28 187.08 322.02 225.42 296.04"/><polygon class="cls-141" points="268.98 341.82 226.8 323.28 249.54 356.76 268.98 341.82"/><polygon class="cls-142" points="217.86 361.44 226.8 323.28 249.54 356.76 217.86 361.44"/><polygon class="cls-143" points="197.7 337.32 226.8 323.28 217.86 361.44 197.7 337.32"/><polygon class="cls-144" points="233.76 296.28 225.42 296.04 226.8 323.28 233.76 296.28"/><polygon class="cls-131" points="245.04 318.24 226.8 323.28 233.76 296.28 245.04 318.24"/><polygon class="cls-145" points="268.98 341.82 245.04 318.24 226.8 323.28 268.98 341.82"/><polygon class="cls-146" points="233.76 296.28 247.08 299.16 245.04 318.24 233.76 296.28"/><polygon class="cls-147" points="677.76 296.28 703.14 281.7 675.42 280.8 677.76 296.28"/><polygon class="cls-148" points="660.66 279.36 675.42 280.8 677.76 296.28 660.66 279.36"/><polygon class="cls-149" points="703.14 281.7 721.68 261.18 746.7 250.38 703.14 281.7"/><polygon class="cls-150" points="675.42 280.8 721.68 261.18 703.14 281.7 675.42 280.8"/><polygon class="cls-151" points="746.7 250.38 755.52 235.8 732.66 247.5 746.7 250.38"/><polygon class="cls-152" points="721.68 261.18 732.66 247.5 746.7 250.38 721.68 261.18"/><polygon class="cls-153" points="755.52 235.8 754.62 221.94 741.12 208.44 755.52 235.8"/><polygon class="cls-154" points="736.62 227.88 755.52 235.8 741.12 208.44 736.62 227.88"/><polygon class="cls-155" points="361.32 204.84 326.4 234.36 301.56 238.32 335.4 216.72 361.32 204.84"/><polygon class="cls-156" points="248.4 279.24 284.64 250.92 268.98 273.96 248.4 279.24"/><polygon class="cls-157" points="301.56 238.32 294.48 250.92 284.64 250.92 301.56 238.32"/><polygon class="cls-158" points="268.98 273.96 310.2 265.08 284.64 250.92 268.98 273.96"/><polygon class="cls-146" points="248.4 279.24 273.48 280.08 310.2 265.08 268.98 273.96 248.4 279.24"/><polygon class="cls-159" points="331.8 280.08 310.2 265.08 273.48 280.08 331.8 280.08"/><polygon class="cls-160" points="284.64 250.92 294.48 250.92 310.2 265.08 284.64 250.92"/><polygon class="cls-161" points="361.32 204.84 405.6 209.16 326.4 234.36 361.32 204.84"/><polygon class="cls-139" points="187.08 398.7 189.06 369.54 198.6 378 191.04 389.58 187.08 398.7"/><polygon class="cls-162" points="430.08 173.16 511.44 166.2 466.08 197.88 430.08 173.16"/><polygon class="cls-163" points="573.6 167.16 511.44 166.2 535.2 188.28 573.6 167.16"/><polygon class="cls-164" points="628.08 172.92 573.6 167.16 594 183 628.08 172.92"/><polygon class="cls-165" points="639.6 181.8 628.08 172.92 594 183 639.6 181.8"/><polygon class="cls-166" points="741.12 208.44 721.68 200.52 707.76 189.72 727.2 197.88 741.12 208.44"/><polygon class="cls-167" points="689.28 194.28 707.76 189.72 721.68 200.52 689.28 194.28"/><polygon class="cls-168" points="663.84 179.16 707.76 189.72 689.28 194.28 652.8 182.04 663.84 179.16"/><polygon class="cls-169" points="639.6 181.8 652.8 182.04 628.08 172.92 639.6 181.8"/><polygon class="cls-170" points="663.84 179.16 628.08 172.92 652.8 182.04 663.84 179.16"/><polygon class="cls-171" points="351.96 316.92 369.96 337.5 379.14 312.48 351.96 316.92"/><polygon class="cls-172" points="386.16 337.5 379.14 312.48 369.96 337.5 386.16 337.5"/><polygon class="cls-173" points="406.14 323.64 386.16 337.5 379.14 312.48 406.14 323.64"/><polygon class="cls-174" points="336.96 296.04 351.96 316.92 379.14 312.48 336.96 296.04"/><polygon class="cls-175" points="353.16 280.08 423.96 281.52 410.28 289.44 343.66 289.44 353.16 280.08"/><polygon class="cls-176" points="336.96 296.04 379.14 312.48 400.92 299.34 343.66 289.44 336.96 296.04"/><polygon class="cls-177" points="406.14 323.64 400.92 299.34 379.14 312.48 406.14 323.64"/><polygon class="cls-178" points="410.28 289.44 400.92 299.34 343.66 289.44 410.28 289.44"/><polygon class="cls-179" points="407.31 183.6 405.6 209.16 361.32 204.84 407.31 183.6"/><polygon class="cls-180" points="430.08 173.16 437.46 199.44 405.6 209.16 407.31 183.6 430.08 173.16"/><polygon class="cls-181" points="466.08 197.88 437.46 199.44 430.08 173.16 466.08 197.88"/><polygon class="cls-182" points="225.42 368.34 280.86 367.56 249.54 356.76 225.42 368.34"/><polygon class="cls-183" points="315.84 372.42 280.86 367.56 276.36 351 315.84 372.42"/><polygon class="cls-15" points="249.54 356.76 276.36 351 280.86 367.56 249.54 356.76"/><polygon class="cls-184" points="351.96 316.92 327.3 328.32 324.6 309.36 351.96 316.92"/><polygon class="cls-185" points="369.96 337.5 355.74 326.16 351.96 316.92 369.96 337.5"/><polygon class="cls-186" points="315.84 372.42 363.12 353.88 276.36 351 315.84 372.42"/><polygon class="cls-187" points="414.48 351.72 368.94 363.42 400.08 375.12 414.48 351.72"/><polygon class="cls-188" points="315.84 372.42 400.08 375.12 368.94 363.42 315.84 372.42"/><polygon class="cls-189" points="363.12 353.88 368.94 363.42 315.84 372.42 363.12 353.88"/><polygon class="cls-190" points="414.48 351.72 363.12 353.88 368.94 363.42 414.48 351.72"/><polygon class="cls-191" points="262.14 367.82 281.4 382.05 280.86 367.56 262.14 367.82"/><polygon class="cls-192" points="315.84 372.42 308.31 398.43 300.39 380.25 315.84 372.42"/><polygon class="cls-193" points="281.4 382.05 296.97 374.81 280.86 367.56 281.4 382.05"/><polygon class="cls-194" points="315.84 372.42 296.97 374.81 280.86 367.56 315.84 372.42"/><polygon class="cls-195" points="300.39 380.25 296.97 374.81 315.84 372.42 300.39 380.25"/><polygon class="cls-196" points="308.31 398.43 300.39 399.15 281.4 382.05 301.65 390.6 308.31 398.43"/><polygon class="cls-197" points="300.39 380.25 301.65 390.6 308.31 398.43 300.39 380.25"/><polygon class="cls-198" points="296.97 374.81 281.4 382.05 300.39 380.25 296.97 374.81"/><polygon class="cls-199" points="301.65 390.6 300.39 380.25 281.4 382.05 301.65 390.6"/><polygon class="cls-200" points="296.97 374.81 281.4 382.05 280.86 367.56 296.97 374.81"/><polygon class="cls-201" points="421.96 281.52 438.4 290.22 459.52 260.76 421.96 281.52"/><polygon class="cls-202" points="301.56 238.32 310.2 265.08 294.48 250.92 301.56 238.32"/><polygon class="cls-203" points="326.4 234.36 398.88 251.7 405.6 209.16 326.4 234.36"/><polygon class="cls-204" points="310.2 265.08 326.4 234.36 301.56 238.32 310.2 265.08"/><polygon class="cls-205" points="331.8 280.08 326.4 234.36 310.2 265.08 331.8 280.08"/><polygon class="cls-206" points="423.96 281.52 398.88 251.7 353.16 280.08 423.96 281.52"/><polygon class="cls-207" points="326.4 234.36 353.16 254.04 331.8 280.08 326.4 234.36"/><polygon class="cls-208" points="353.16 280.08 353.16 254.04 331.8 280.08 353.16 280.08"/><polygon class="cls-209" points="398.88 251.7 353.16 254.04 353.16 280.08 398.88 251.7"/><polygon class="cls-210" points="326.4 234.36 353.16 254.04 398.88 251.7 326.4 234.36"/><polygon class="cls-211" points="276.36 351 290.89 322.02 268.98 341.82 276.36 351"/><polygon class="cls-212" points="245.04 318.24 290.89 322.02 268.98 341.82 245.04 318.24"/><polygon class="cls-213" points="247.08 299.16 270.96 302.76 290.89 322.02 247.08 299.16"/><polygon class="cls-131" points="245.04 318.24 290.89 322.02 247.08 299.16 245.04 318.24"/><polygon class="cls-31" points="294.48 306.48 290.89 322.02 270.96 302.76 294.48 306.48"/><polygon class="cls-214" points="324.6 309.36 290.89 322.02 294.48 306.48 324.6 309.36"/><polygon class="cls-215" points="327.3 328.32 290.89 322.02 324.6 309.36 327.3 328.32"/><polygon class="cls-216" points="276.36 351 327.3 328.32 290.89 322.02 276.36 351"/><polygon class="cls-217" points="363.12 353.88 327.3 328.32 276.36 351 363.12 353.88"/><polygon class="cls-218" points="351.96 316.92 355.74 326.16 369.96 337.5 327.3 328.32 351.96 316.92"/><polygon class="cls-219" points="363.12 353.88 369.96 337.5 327.3 328.32 363.12 353.88"/><polygon class="cls-220" points="400.92 299.34 429.12 309.36 406.14 323.64 400.92 299.34"/><polygon class="cls-221" points="363.12 353.88 414.48 351.72 386.16 337.5 369.96 337.5 363.12 353.88"/><polygon class="cls-222" points="406.14 323.64 414.48 351.72 386.16 337.5 406.14 323.64"/><polygon class="cls-223" points="423.96 281.52 429.12 309.36 400.92 299.34 410.28 289.44 423.96 281.52"/><polygon class="cls-224" points="406.14 323.64 496.08 343.32 414.48 351.72 406.14 323.64"/><polygon class="cls-225" points="429.12 309.36 496.08 343.32 406.14 323.64 429.12 309.36"/><polygon class="cls-226" points="440.4 290.22 496.08 343.32 429.12 309.36 423.96 281.52 440.4 290.22"/><polygon class="cls-17" points="398.88 251.7 443.76 217.08 405.6 209.16 398.88 251.7"/><polygon class="cls-227" points="423.96 281.52 437.46 242.28 398.88 251.7 423.96 281.52"/><polygon class="cls-228" points="453.12 257.22 448.08 244.2 453.12 230.43 453.12 257.22"/><polygon class="cls-229" points="464.64 251.7 464.64 227.52 460.02 242.28 464.64 251.7"/><polygon class="cls-230" points="440.74 242.28 443.76 261.18 437.46 251.73 440.74 242.28"/><polygon class="cls-231" points="434.91 252.86 437.46 265.08 432.6 262.44 434.91 252.86"/><polygon class="cls-232" points="437.46 242.28 432.6 262.44 437.46 265.08 459.52 260.76 423.96 281.52 437.46 242.28"/><polygon class="cls-233" points="443.76 217.08 466.08 197.88 437.46 199.44 405.6 209.16 443.76 217.08"/><polygon class="cls-234" points="437.46 265.08 443.76 261.18 437.46 251.73 440.74 242.28 437.46 242.28 434.91 252.86 437.46 265.08"/><polygon class="cls-235" points="453.12 257.22 443.76 261.18 440.74 242.28 453.12 230.43 448.08 244.2 453.12 257.22"/><polygon class="cls-236" points="464.64 251.7 453.12 257.22 453.12 230.43 464.64 227.52 460.02 242.28 464.64 251.7"/><polygon class="cls-237" points="437.46 265.08 459.52 260.76 497.64 245.81 464.64 251.7 453.12 257.22 443.76 261.18 437.46 265.08"/><polygon class="cls-238" points="466.08 197.88 535.2 188.28 511.44 166.2 466.08 197.88"/><polygon class="cls-239" points="594 183 535.2 188.28 573.6 167.16 594 183"/><polygon class="cls-240" points="437.46 242.28 443.76 217.08 398.88 251.7 437.46 242.28"/><polygon class="cls-241" points="464.64 227.52 443.76 217.08 437.46 242.28 440.74 242.28 453.12 230.43 464.64 227.52"/><polygon class="cls-242" points="466.08 197.88 464.64 227.52 443.76 217.08 466.08 197.88"/><polygon class="cls-243" points="497.64 245.81 464.64 227.52 464.64 251.7 497.64 245.81"/><polygon class="cls-244" points="539.34 235.98 497.64 245.81 520.08 227.52 539.34 235.98"/><polygon class="cls-245" points="493.8 232.02 497.64 245.81 520.08 227.52 493.8 232.02"/><polygon class="cls-246" points="539.34 235.98 563.82 214.38 585.78 227.52 539.34 235.98"/><polygon class="cls-247" points="585.78 227.52 625.56 209.16 592.08 205.92 585.78 227.52"/><polygon class="cls-248" points="563.82 214.38 592.08 205.92 585.78 227.52 563.82 214.38"/><polygon class="cls-249" points="464.64 227.52 493.8 232.02 497.64 245.81 464.64 227.52"/><polygon class="cls-250" points="466.08 197.88 506.94 212.7 535.2 188.28 466.08 197.88"/><polygon class="cls-251" points="464.64 227.52 506.94 212.7 493.8 232.02 464.64 227.52"/><polygon class="cls-252" points="520.08 227.52 506.94 212.7 493.8 232.02 520.08 227.52"/><polygon class="cls-253" points="563.82 214.38 520.08 227.52 539.34 235.98 563.82 214.38"/><polygon class="cls-254" points="464.64 227.52 506.94 212.7 466.08 197.88 464.64 227.52"/><polygon class="cls-255" points="563.82 214.38 535.2 202.68 520.08 227.52 563.82 214.38"/><polygon class="cls-256" points="506.94 212.7 535.2 202.68 520.08 227.52 506.94 212.7"/><polygon class="cls-257" points="535.2 188.28 535.2 202.68 506.94 212.7 535.2 188.28"/><polygon class="cls-258" points="563.82 214.38 570.96 196.68 535.2 188.28 535.2 202.68 563.82 214.38"/><polygon class="cls-259" points="592.08 205.92 570.96 196.68 563.82 214.38 592.08 205.92"/><polygon class="cls-260" points="594 183 570.96 196.68 535.2 188.28 594 183"/><polygon class="cls-261" points="592.08 205.92 594 183 570.96 196.68 592.08 205.92"/><polygon class="cls-262" points="497.64 297.64 496.08 343.32 586.32 320.28 497.64 297.64"/><polygon class="cls-263" points="582.54 292.92 497.64 297.64 586.32 320.28 582.54 292.92"/><polygon class="cls-264" points="438.4 290.22 497.64 297.64 496.08 343.32 438.4 290.22"/><polygon class="cls-265" points="459.52 260.76 497.64 297.64 438.4 290.22 459.52 260.76"/><polygon class="cls-266" points="497.64 245.81 523.05 271.56 497.64 297.64 497.64 245.81"/><polygon class="cls-267" points="459.52 260.76 497.64 245.81 497.64 297.64 459.52 260.76"/><polygon class="cls-268" points="573.18 261.18 497.64 297.64 582.54 292.92 573.18 261.18"/><polygon class="cls-269" points="539.34 235.98 523.05 271.56 497.64 245.81 539.34 235.98"/><polygon class="cls-270" points="573.18 261.18 523.05 271.56 497.64 297.64 573.18 261.18"/><polygon class="cls-271" points="638.88 267.12 619.68 261.18 604.5 263.34 638.88 267.12"/><polygon class="cls-272" points="573.18 261.18 569.28 257.88 604.5 263.34 573.18 261.18"/><polygon class="cls-272" points="619.68 261.18 569.28 257.88 604.5 263.34 619.68 261.18"/><polygon class="cls-273" points="573.18 261.18 539.34 235.98 523.05 271.56 573.18 261.18"/><polygon class="cls-274" points="585.78 227.52 569.28 257.88 539.34 235.98 585.78 227.52"/><polygon class="cls-275" points="594 183 625.56 209.16 592.08 205.92 594 183"/><polygon class="cls-276" points="639.6 181.8 625.56 209.16 594 183 639.6 181.8"/><polygon class="cls-277" points="676.56 205.92 625.56 209.16 639.6 181.8 676.56 205.92"/><polygon class="cls-278" points="709.2 202.68 676.56 205.92 639.6 181.8 652.8 182.04 689.28 194.28 709.2 202.68"/><polygon class="cls-279" points="721.68 200.52 709.2 202.68 689.28 194.28 721.68 200.52"/><polygon class="cls-280" points="739.58 215.1 709.2 202.68 721.68 200.52 741.12 208.44 739.58 215.1"/><polygon class="cls-281" points="755.52 235.8 736.62 227.88 732.66 247.5 755.52 235.8"/><polygon class="cls-282" points="660.66 279.36 675.42 270.54 721.68 261.18 675.42 280.8 660.66 279.36"/><polygon class="cls-283" points="619.68 261.18 585.78 227.52 569.28 257.88 619.68 261.18"/><polygon class="cls-284" points="638.88 267.12 660.66 279.36 668.4 234.36 638.88 267.12"/><polygon class="cls-285" points="675.42 270.54 668.4 234.36 721.68 261.18 675.42 270.54"/><polygon class="cls-286" points="660.66 279.36 675.42 270.54 668.4 234.36 660.66 279.36"/><polygon class="cls-287" points="732.66 247.5 668.4 234.36 721.68 261.18 732.66 247.5"/><polygon class="cls-288" points="619.68 261.18 625.56 209.16 585.78 227.52 619.68 261.18"/><polygon class="cls-289" points="619.68 261.18 643.92 228.6 625.56 209.16 619.68 261.18"/><polygon class="cls-290" points="638.88 267.12 643.92 228.6 619.68 261.18 638.88 267.12"/><polygon class="cls-291" points="668.4 234.36 643.92 228.6 638.88 267.12 668.4 234.36"/><polygon class="cls-292" points="676.56 205.92 643.92 228.6 625.56 209.16 676.56 205.92"/><polygon class="cls-293" points="668.4 234.36 676.56 205.92 643.92 228.6 668.4 234.36"/><polygon class="cls-294" points="709.2 202.68 713.94 224.82 676.56 205.92 709.2 202.68"/><polygon class="cls-295" points="668.4 234.36 713.94 224.82 676.56 205.92 668.4 234.36"/><polygon class="cls-296" points="732.66 247.5 713.94 224.82 668.4 234.36 732.66 247.5"/><polygon class="cls-297" points="736.62 227.88 713.94 224.82 732.66 247.5 736.62 227.88"/><polygon class="cls-298" points="709.2 202.68 739.58 215.1 736.62 227.88 713.94 224.82 709.2 202.68"/><path class="cls-299" d="M575.27,218.32l-2.81-4.24a8.34,8.34,0,0,1-.18-8.92l3-5a8.34,8.34,0,0,1,8.86-3.85l2,.42a8.34,8.34,0,0,1,6.33,6L593.6,207a8.32,8.32,0,0,1-.77,6.22l-2.62,4.72a8.34,8.34,0,0,1-8.62,4.18l-.69-.11A8.32,8.32,0,0,1,575.27,218.32Z"/><circle class="cls-300" cx="584.38" cy="208.73" r="9.07"/><polygon class="cls-301" points="580.89 208.73 583.68 201.49 586.47 208.73 582.87 216.16 580.89 208.73"/></svg>